<svg width="3202" height="3647" viewBox="0 0 3202 3647" fill="none" xmlns="http://www.w3.org/2000/svg">
<rect width="3202" height="3647" rx="318" fill="#FF8D8D"/>
<rect width="3202" height="3647" rx="318" fill="#FF8D8D"/>
<rect x="161.738" y="630.644" width="374.659" height="362.431" rx="181.215" fill="#D9D9D9" fill-opacity="0.38"/>
<rect x="929.48" y="1194.58" width="374.659" height="362.431" rx="181.215" fill="#D9D9D9" fill-opacity="0.38"/>
<rect x="1717.01" y="660.215" width="374.659" height="362.431" rx="181.215" fill="#D9D9D9" fill-opacity="0.38"/>
<rect x="2205.64" y="1893.99" width="374.659" height="362.431" rx="181.215" fill="#D9D9D9" fill-opacity="0.38"/>
<rect x="1904" y="2382.28" width="374.659" height="362.431" rx="181.215" fill="#D9D9D9" fill-opacity="0.38"/>
<rect x="683.121" y="841.774" width="2168.79" height="189.812" rx="94.9059" fill="white" fill-opacity="0.88"/>
<rect x="349.408" y="812.202" width="254.549" height="248.956" rx="124.478" fill="white" fill-opacity="0.88"/>
<rect x="683.121" y="1149.19" width="2168.79" height="189.812" rx="94.9059" fill="white" fill-opacity="0.88"/>
<rect x="349.408" y="1119.61" width="254.549" height="248.956" rx="124.478" fill="white" fill-opacity="0.88"/>
<rect x="683.121" y="1439.41" width="2067.79" height="189.812" rx="94.9059" fill="white" fill-opacity="0.88"/>
<rect x="349.408" y="1409.83" width="254.549" height="248.956" rx="124.478" fill="white" fill-opacity="0.88"/>
<rect x="683.121" y="1746.82" width="1966.1" height="189.812" rx="94.9059" fill="white" fill-opacity="0.88"/>
<rect x="349.408" y="1717.25" width="254.549" height="248.956" rx="124.478" fill="white" fill-opacity="0.88"/>
<rect x="683.121" y="2037.04" width="1786.62" height="189.812" rx="94.9059" fill="white" fill-opacity="0.88"/>
<rect x="349.408" y="2007.47" width="254.549" height="248.956" rx="124.478" fill="white" fill-opacity="0.88"/>
<rect x="683.121" y="2344.45" width="1522.52" height="189.812" rx="94.9059" fill="white" fill-opacity="0.88"/>
<rect x="349.408" y="2314.88" width="254.549" height="248.956" rx="124.478" fill="white" fill-opacity="0.88"/>
<path d="M526.16 1737.84C613.551 1415.18 745.091 1246.96 879.602 1092.53C949.855 1011.87 1024.41 966.355 1100.24 963.467C1169.47 960.83 1237.41 912.831 1306.76 951.994C1425.65 1019.13 1507.8 1259.28 1521.65 1588.7C1524.91 1666.04 1540.44 1883.46 1528.45 1955.81C1515.53 2033.79 1483.14 2027.21 1457.87 2059.06C1413.69 2114.73 1371.2 2088.25 1324.02 2104.95C1252.45 2130.27 1182.58 2176.65 1110.18 2176.65C1099.7 2176.65 970.897 2149.08 979.988 2099.21C989.385 2047.66 1024.11 2007.97 1040.64 1981.62C1102.14 1883.55 1167.77 1809.92 1237.23 1766.52C1361.33 1688.96 1505.56 1672.19 1626.74 1790.9C1752.51 1914.09 1844.24 1951.69 1973.39 1809.54C2110.01 1659.16 2235.6 1491.86 2385.91 1481.15C2559.19 1468.8 2736.14 1403.03 2907.19 1324.84" stroke="#FFD3D3" stroke-opacity="0.92" stroke-width="173" stroke-linecap="round"/>
</svg>
